<?xml version="1.0" standalone="no"?>
<!DOCTYPE svg PUBLIC "-//W3C//DTD SVG 20010904//EN"
 "http://www.w3.org/TR/2001/REC-SVG-20010904/DTD/svg10.dtd">
<svg version="1.0" xmlns="http://www.w3.org/2000/svg"
 width="2048.000000pt" height="2048.000000pt" viewBox="0 0 2048.000000 2048.000000"
 preserveAspectRatio="xMidYMid meet">

<g transform="translate(0.000000,2048.000000) scale(0.100000,-0.100000)"
fill="#000000" stroke="none">
<path d="M0 10240 l0 -10240 10240 0 10240 0 0 10240 0 10240 -10240 0 -10240
0 0 -10240z m10878 9432 c221 -47 510 -185 742 -355 112 -82 333 -300 412
-408 144 -194 227 -356 306 -599 83 -253 79 -241 102 -375 40 -240 36 -495
-11 -666 -37 -134 -140 -422 -184 -514 -44 -92 -190 -319 -238 -371 -15 -16
-27 -36 -27 -44 -1 -34 -274 -300 -309 -300 -6 0 -11 -4 -11 -9 0 -10 -126
-99 -233 -164 -98 -60 -252 -131 -372 -170 -235 -77 -373 -102 -655 -117 -527
-28 -620 -38 -864 -95 -559 -131 -664 -164 -1018 -314 -189 -81 -520 -247
-620 -312 -20 -13 -78 -51 -130 -84 -335 -214 -577 -416 -960 -802 -235 -237
-248 -251 -425 -472 -117 -145 -115 -141 -228 -316 -107 -165 -112 -173 -192
-315 -120 -211 -240 -470 -319 -685 -25 -66 -63 -166 -84 -221 -45 -114 -85
-276 -200 -794 -55 -246 -80 -536 -80 -909 0 -424 39 -758 130 -1126 5 -22 26
-116 45 -208 43 -202 57 -246 173 -542 170 -434 329 -741 566 -1095 228 -341
397 -544 705 -849 241 -238 461 -415 796 -638 210 -140 260 -169 495 -291 314
-163 580 -272 880 -359 85 -25 184 -54 220 -65 266 -78 485 -106 1000 -129
289 -13 442 -9 830 22 365 28 506 53 761 133 79 24 210 65 292 91 202 63 580
222 737 309 52 30 158 89 235 131 146 82 337 205 440 285 77 60 298 229 333
255 37 28 249 219 292 264 190 198 273 292 447 515 97 123 329 456 385 551
170 290 318 601 434 915 93 253 148 448 218 783 72 342 86 464 109 947 5 103
-10 260 -34 349 -58 215 -223 427 -409 525 -203 107 -538 126 -758 44 -90 -34
-161 -81 -254 -168 -68 -63 -104 -108 -160 -198 -107 -172 -108 -179 -118
-492 -17 -510 -36 -660 -115 -915 -18 -60 -50 -164 -70 -230 -59 -196 -99
-293 -196 -481 -106 -204 -229 -407 -321 -525 -34 -45 -78 -102 -97 -127 -95
-128 -305 -345 -453 -468 -349 -291 -805 -553 -1148 -659 -30 -9 -73 -23 -95
-31 -70 -23 -148 -43 -311 -78 -367 -81 -589 -102 -885 -86 -317 17 -420 33
-794 125 -274 67 -312 80 -510 167 -214 95 -276 126 -392 200 -54 35 -133 86
-176 113 -262 167 -606 487 -832 774 -175 223 -365 552 -467 811 -16 41 -45
113 -65 159 -45 108 -74 208 -118 409 -137 631 -138 952 -5 1554 51 232 80
334 126 439 20 46 47 116 61 154 41 115 213 444 297 570 43 65 176 244 198
266 8 8 21 24 29 37 9 12 33 40 53 62 20 21 36 43 36 47 0 26 276 301 363 362
18 13 19 13 12 0 -4 -8 5 -1 21 14 147 144 594 428 799 507 44 17 121 49 170
72 201 91 463 158 865 219 190 28 472 36 569 15 163 -35 285 -121 377 -268 76
-121 95 -174 102 -285 7 -135 -17 -209 -118 -358 -126 -186 -211 -221 -680
-275 -442 -51 -616 -99 -900 -247 -135 -71 -160 -86 -232 -146 -26 -21 -51
-37 -55 -35 -9 4 -63 -49 -57 -55 3 -2 -2 -10 -11 -17 -10 -8 -15 -9 -15 -1 0
6 4 11 10 11 5 0 7 7 4 15 -5 12 -12 10 -39 -12 -17 -16 -30 -32 -27 -37 3 -5
0 -6 -7 -2 -17 11 -283 -253 -276 -273 3 -9 3 -12 -1 -8 -9 9 -45 -23 -39 -34
3 -4 -3 -10 -12 -13 -10 -3 -24 -16 -32 -28 -13 -21 -13 -22 2 -9 10 8 17 9
17 3 0 -6 -5 -14 -11 -17 -5 -4 -43 -49 -84 -100 -59 -73 -97 -139 -183 -312
-60 -120 -116 -243 -125 -273 -18 -66 -58 -259 -89 -430 -31 -174 -31 -436 0
-635 50 -320 88 -470 147 -584 24 -47 67 -134 94 -194 54 -116 64 -132 191
-307 207 -286 480 -520 817 -700 185 -98 262 -127 508 -190 289 -73 375 -85
610 -84 238 1 365 20 628 93 199 56 299 95 487 193 164 86 210 115 326 204
315 242 608 617 749 957 47 114 126 370 149 482 32 157 56 433 56 643 0 216
37 431 100 579 117 278 153 348 262 506 90 130 171 223 308 350 123 115 222
185 415 292 181 101 226 119 397 156 79 16 186 40 238 52 141 32 455 31 625
-1 332 -63 494 -121 737 -265 273 -162 507 -394 687 -681 82 -130 107 -183
174 -357 125 -325 142 -450 134 -967 -6 -366 -11 -429 -67 -747 -107 -613
-230 -1049 -426 -1515 -178 -420 -317 -690 -502 -975 -223 -343 -235 -360
-335 -478 -17 -21 -35 -47 -39 -58 -4 -10 -12 -19 -18 -19 -5 0 -10 -6 -10
-13 0 -7 -18 -31 -40 -52 -22 -21 -40 -44 -40 -50 0 -14 -45 -57 -52 -50 -3 3
-17 -10 -32 -30 -15 -19 -25 -35 -22 -35 3 0 -4 -11 -16 -25 -11 -13 -24 -22
-28 -20 -4 3 -10 -5 -13 -17 -4 -12 -9 -20 -12 -17 -6 6 -75 -53 -69 -60 5 -6
105 79 156 134 26 28 47 47 48 43 0 -13 -87 -107 -265 -288 -296 -300 -414
-412 -426 -404 -7 4 -9 3 -5 -4 7 -12 -63 -74 -76 -66 -5 3 -4 12 3 20 6 7 15
12 19 9 5 -3 12 0 16 6 4 8 3 9 -4 5 -7 -4 -12 -2 -12 3 0 10 14 15 33 12 5
-1 6 3 2 9 -8 12 -20 6 -62 -34 -18 -16 -30 -33 -27 -38 3 -5 0 -7 -8 -6 -7 2
-12 -4 -10 -12 2 -8 0 -12 -4 -8 -3 4 -21 -7 -39 -25 -19 -19 -61 -58 -95 -88
-34 -30 -74 -65 -88 -79 -15 -14 -45 -39 -67 -55 -22 -16 -42 -32 -45 -36 -17
-20 -132 -89 -149 -89 -10 0 -21 -4 -23 -8 -4 -11 -176 -123 -328 -214 -351
-211 -633 -349 -975 -478 -621 -234 -957 -311 -1680 -386 -378 -40 -677 -39
-1145 4 -683 63 -909 106 -1458 278 -260 81 -774 305 -1017 441 -256 145 -572
344 -700 441 -68 52 -247 194 -255 202 -3 3 -39 32 -80 65 -331 264 -623 561
-945 963 -202 252 -284 365 -390 537 -325 525 -527 939 -680 1389 -26 77 -60
176 -77 220 -55 149 -221 888 -262 1170 -25 170 -36 408 -36 816 0 559 5 611
114 1145 82 406 178 743 329 1155 49 136 116 283 244 540 187 375 403 731 577
950 29 36 76 101 105 145 62 91 128 166 404 456 286 300 507 506 752 700 39
30 102 80 140 110 91 72 290 207 435 296 397 242 711 397 1135 560 274 105
297 112 558 175 117 28 246 58 287 68 421 102 487 110 1028 135 354 16 389 22
527 89 230 112 346 220 445 411 70 138 90 217 90 361 0 146 -17 241 -66 368
-116 301 -343 489 -645 537 -82 13 -615 5 -774 -12 -49 -5 -151 -13 -225 -18
-176 -12 -255 -23 -548 -77 -233 -43 -672 -148 -892 -213 -57 -18 -179 -58
-270 -90 -91 -32 -183 -64 -205 -71 -22 -7 -116 -45 -210 -85 -93 -40 -209
-89 -257 -109 -113 -46 -515 -247 -672 -336 -437 -246 -813 -504 -1133 -779
-143 -122 -178 -147 -136 -97 10 12 3 8 -15 -9 -18 -16 -39 -30 -47 -30 -31 0
-978 -942 -994 -989 -2 -6 -22 -28 -43 -49 -22 -21 -37 -41 -34 -44 6 -6 15 1
79 62 84 80 70 58 -38 -61 -66 -72 -124 -128 -129 -126 -5 3 -7 -2 -3 -11 3
-9 1 -19 -5 -23 -7 -5 -8 -2 -3 7 24 39 -56 -54 -89 -103 -21 -32 -42 -58 -47
-58 -5 0 -9 -4 -9 -10 0 -5 -40 -61 -90 -124 -49 -64 -90 -118 -90 -121 0 -3
-44 -72 -97 -153 -227 -346 -259 -401 -484 -835 -71 -137 -149 -297 -173 -355
-24 -59 -64 -150 -89 -203 -101 -214 -313 -860 -410 -1249 -76 -302 -195
-1049 -218 -1365 -16 -212 -16 -1019 -1 -1200 33 -379 135 -1063 197 -1324 86
-356 310 -1034 418 -1261 24 -52 70 -156 100 -230 102 -249 357 -732 540
-1025 82 -131 98 -155 242 -365 135 -197 368 -497 539 -695 114 -132 521 -549
671 -688 323 -300 809 -675 1155 -892 69 -43 148 -92 175 -110 141 -90 241
-144 580 -315 204 -102 424 -207 490 -232 66 -25 164 -64 217 -86 197 -83 604
-211 918 -291 478 -121 608 -145 1005 -190 443 -50 519 -54 930 -55 574 0 956
29 1490 115 170 27 648 139 834 195 185 56 623 205 693 235 40 17 141 58 223
90 83 33 188 81 235 108 47 27 114 61 150 76 104 44 248 119 505 263 243 137
818 526 1050 711 169 135 414 361 633 586 81 83 187 191 237 241 220 222 506
542 516 578 3 11 11 20 18 18 8 -2 10 4 6 17 -4 15 12 39 71 103 99 107 109
121 191 255 37 61 113 178 167 260 211 313 417 690 575 1050 38 87 83 185 99
218 51 101 227 597 296 830 92 315 77 250 225 965 59 287 94 639 111 1090 20
565 16 537 91 647 104 151 226 236 398 278 118 29 275 6 396 -58 126 -67 255
-228 290 -362 29 -112 16 -749 -21 -1075 -50 -436 -173 -1158 -228 -1340 -19
-63 -49 -171 -66 -240 -68 -272 -136 -484 -290 -905 -55 -153 -173 -428 -265
-620 -166 -348 -239 -489 -392 -760 -54 -96 -308 -503 -360 -578 -27 -38 -72
-102 -100 -142 -29 -40 -53 -76 -53 -79 0 -10 -43 -70 -56 -78 -7 -4 -27 -31
-45 -60 -19 -29 -39 -57 -46 -63 -6 -5 -42 -50 -78 -100 -37 -49 -71 -91 -76
-93 -5 -2 -9 -9 -9 -15 0 -7 -25 -41 -56 -77 -30 -36 -66 -78 -80 -93 -13 -16
-28 -26 -34 -22 -5 3 -10 0 -10 -9 0 -8 -4 -16 -8 -18 -21 -8 -161 -172 -155
-181 3 -5 2 -7 -4 -4 -13 8 -85 -66 -81 -83 2 -8 -2 -14 -9 -15 -14 0 -313
-295 -310 -306 1 -4 -1 -6 -5 -6 -13 3 -77 -66 -71 -77 3 -6 2 -8 -2 -3 -10 9
-115 -91 -115 -110 0 -8 -8 -17 -17 -20 -26 -10 -43 -29 -35 -38 4 -5 2 -5 -5
-1 -6 3 -18 -2 -25 -12 -7 -9 -38 -37 -68 -60 -30 -24 -66 -58 -81 -77 -53
-70 -367 -335 -397 -335 -8 0 -42 -24 -75 -53 -34 -30 -82 -68 -107 -86 -25
-17 -70 -50 -100 -72 -30 -22 -91 -65 -135 -95 -44 -31 -120 -84 -170 -120
-49 -35 -142 -96 -205 -135 -63 -39 -149 -93 -190 -119 -213 -134 -736 -398
-1105 -557 -484 -209 -882 -348 -1325 -462 -85 -22 -189 -49 -230 -60 -261
-70 -771 -150 -1205 -191 -707 -66 -1212 -66 -1900 0 -429 41 -605 68 -985
150 -563 121 -941 237 -1485 455 -343 138 -495 208 -865 401 -468 243 -623
339 -1180 733 -694 490 -1557 1349 -2103 2094 -352 480 -674 1025 -964 1632
-79 167 -251 580 -302 727 -21 62 -71 205 -110 318 -39 113 -96 297 -127 410
-31 113 -73 268 -94 345 -21 77 -48 196 -60 265 -11 69 -31 190 -45 270 -13
80 -37 224 -54 320 -71 410 -91 701 -91 1340 0 687 20 989 95 1425 19 110 49
288 65 395 17 107 44 245 59 305 116 453 177 676 212 775 22 63 64 187 94 275
29 88 83 231 119 317 36 87 66 160 66 163 0 3 33 83 74 178 85 198 331 696
414 837 267 458 448 742 569 894 40 50 72 96 73 102 0 7 6 14 14 17 8 3 39 48
69 100 31 52 71 107 89 123 18 16 54 56 80 89 26 33 72 87 102 120 59 63 63
71 44 77 -12 4 -14 3 147 174 139 148 661 672 740 743 33 30 87 80 120 111 57
53 185 160 270 226 413 317 673 500 1100 775 384 248 917 509 1440 706 94 35
206 79 250 98 44 19 157 57 250 85 94 28 247 75 340 105 199 63 251 76 405
105 63 12 182 37 264 56 285 67 742 133 1056 154 91 6 188 12 215 14 28 2 246
2 485 1 405 -1 442 -3 538 -23z m-7646 -3364 c-7 -7 -12 -8 -12 -2 0 14 12 26
19 19 2 -3 -1 -11 -7 -17z"/>
<path d="M5185 16619 c-4 -6 -5 -12 -2 -15 2 -3 7 2 10 11 7 17 1 20 -8 4z"/>
<path d="M15469 6103 c-13 -16 -12 -17 4 -4 9 7 17 15 17 17 0 8 -8 3 -21 -13z"/>
<path d="M15226 5845 c-11 -8 -15 -15 -9 -15 6 0 16 7 23 15 16 19 11 19 -14
0z"/>
</g>
</svg>
